<svg xmlns="http://www.w3.org/2000/svg" viewBox="0 0 246.4 61.88"><defs><style>.cls-1{fill:#293057;}.cls-2{fill:#75a7d8;}.cls-3{fill:#fff;}</style></defs><g id="Capa_2" data-name="Capa 2"><g id="Capa_1-2" data-name="Capa 1"><path class="cls-1" d="M79.45,36.26V18.31H82a2,2,0,0,1,2,2v18H81.49a2,2,0,0,1-2-2"/><path class="cls-1" d="M95.68,23.94a5.05,5.05,0,0,1,5,3.45,6.91,6.91,0,0,1,.39,2.36V38.3H98.72a2,2,0,0,1-2-2V30.69a2.48,2.48,0,0,0-2.38-2.75c-2.08,0-2.89,1.63-2.89,3.89V38.3H89a2,2,0,0,1-2-2V24.36h4.44v1.33a5.8,5.8,0,0,1,4.27-1.75"/><path class="cls-1" d="M112.36,34.19l1,3.49a7.68,7.68,0,0,1-4.5,1A5.53,5.53,0,0,1,104,33.11V18.32h2.4a2,2,0,0,1,2,2v4h4.11v3.53h-4.11v4.83c0,1.35.62,2,1.86,2a5.23,5.23,0,0,0,2-.55"/><path class="cls-1" d="M214.92,34.19l1,3.49a7.71,7.71,0,0,1-4.5,1,5.54,5.54,0,0,1-4.86-5.57V18.39H209a2,2,0,0,1,2,2v3.94h4.11v3.53H211v4.83c0,1.35.62,2,1.86,2a5.19,5.19,0,0,0,2-.55"/><path class="cls-1" d="M122.28,27.55a3.12,3.12,0,0,0-2.94,2.2h5.75a2.87,2.87,0,0,0-2.81-2.2m0,11.16a7.44,7.44,0,0,1-5.2-2,7.34,7.34,0,0,1-2.16-5.34,7.06,7.06,0,0,1,4.55-6.85,7.61,7.61,0,0,1,2.83-.54,6.84,6.84,0,0,1,6.6,4.36,8.34,8.34,0,0,1,.59,3v1.14H119.26a3.13,3.13,0,0,0,3,2.69,3.3,3.3,0,0,0,2.41-.87,2,2,0,0,1,1.76-.5l2.74.56c-1.08,2.59-3.26,4.36-6.91,4.36"/><path class="cls-1" d="M132.5,36.26V18.31h2.4a2,2,0,0,1,2,2v18h-2.41a2,2,0,0,1-2-2"/><path class="cls-1" d="M139.87,36.26V18.31h2.41a2,2,0,0,1,2,2v18H141.9a2,2,0,0,1-2-2"/><path class="cls-1" d="M147.22,36.26V24.36h2.41a2,2,0,0,1,2,2V38.3h-2.41a2,2,0,0,1-2-2m2.23-17.87A2.52,2.52,0,0,1,152,20.91a2.48,2.48,0,0,1-2.58,2.47,2.44,2.44,0,0,1-2.56-2.47,2.52,2.52,0,0,1,2.56-2.52"/><path class="cls-1" d="M162.26,33.85a3.18,3.18,0,1,0-3.33-3.19,3.17,3.17,0,0,0,3.33,3.19m3.25,2.7v-.39a6.23,6.23,0,0,1-4.19,1.33,6.66,6.66,0,0,1-4.72-2,6.76,6.76,0,0,1-2-4.87,6.56,6.56,0,0,1,4.16-6.22,6.79,6.79,0,0,1,2.56-.5,6.24,6.24,0,0,1,4.19,1.34v-.92h4.36V36.91a6.15,6.15,0,0,1-4.69,6.22,10.77,10.77,0,0,1-3.11.44c-3.3,0-5.72-1.27-7-3.36,0,0,2.33-1.45,3.37-1.26a6.31,6.31,0,0,1,1.84.59,3.61,3.61,0,0,0,1.76.39,3.23,3.23,0,0,0,3.47-3.38"/><path class="cls-1" d="M179.47,27.55a3.12,3.12,0,0,0-2.94,2.2h5.75a2.87,2.87,0,0,0-2.81-2.2m0,11.16a7.44,7.44,0,0,1-5.2-2,7.34,7.34,0,0,1-2.16-5.34,7.06,7.06,0,0,1,4.55-6.85,7.61,7.61,0,0,1,2.83-.54,6.84,6.84,0,0,1,6.6,4.36,8.34,8.34,0,0,1,.59,3v1.14H176.45a3.13,3.13,0,0,0,3,2.69,3.3,3.3,0,0,0,2.41-.87,2,2,0,0,1,1.76-.5l2.74.56c-1.08,2.59-3.26,4.36-6.91,4.36"/><path class="cls-1" d="M198.25,23.94a5,5,0,0,1,5,3.45,6.91,6.91,0,0,1,.39,2.36V38.3h-2.38a2,2,0,0,1-2-2V30.69a2.49,2.49,0,0,0-2.39-2.75c-2.07,0-2.89,1.63-2.89,3.89V38.3h-2.41a2,2,0,0,1-2-2V24.36H194v1.33a5.8,5.8,0,0,1,4.28-1.75"/><path class="cls-1" d="M218.35,36.26V24.36h2.41a2,2,0,0,1,2,2V38.3h-2.4a2,2,0,0,1-2-2m2.22-17.87a2.52,2.52,0,0,1,2.58,2.52,2.48,2.48,0,0,1-2.58,2.47A2.43,2.43,0,0,1,218,20.91a2.52,2.52,0,0,1,2.55-2.52"/><path class="cls-1" d="M231.83,35.38a3,3,0,0,0,2.46-1.17,2.23,2.23,0,0,0,.46-1.41v-.31h-3.06c-1,0-1.8.52-1.8,1.45s.93,1.44,1.94,1.44m.95-7.94a2.15,2.15,0,0,0-2,.89h-4.51a5.32,5.32,0,0,1,3.19-3.76,7.46,7.46,0,0,1,3.2-.63c3,0,5.05,1.1,5.94,3.18a6.08,6.08,0,0,1,.44,2.35v6.79a2,2,0,0,1-2,2h-2.24v-1a6.22,6.22,0,0,1-4.17,1.44c-2.94,0-5.19-1.69-5.19-4.55,0-3,2.55-4.5,5.8-4.5h3.56v-.28a1.88,1.88,0,0,0-2-1.94"/><path class="cls-1" d="M242,36.26V18.31h2.41a2,2,0,0,1,2,2v18H244a2,2,0,0,1-2-2"/><path class="cls-1" d="M61.88,30.94A30.94,30.94,0,1,1,30.94,0,30.94,30.94,0,0,1,61.88,30.94"/><path class="cls-2" d="M30.83,15.81H23a4.21,4.21,0,0,0-4.16,4.26v28A4.2,4.2,0,0,0,23,52.33h7.8A4.2,4.2,0,0,0,35,48.08v-28a4.21,4.21,0,0,0-4.15-4.26"/><path class="cls-2" d="M31.05,9.54h7.8A4.21,4.21,0,0,1,43,13.8v28a4.21,4.21,0,0,1-4.16,4.26h-7.8a4.22,4.22,0,0,1-4.16-4.26v-28a4.22,4.22,0,0,1,4.16-4.26"/><path class="cls-3" d="M35,46.07v-26a4.26,4.26,0,0,0-4.23-4.29H26.89v26a4.27,4.27,0,0,0,4.24,4.29Z"/></g></g></svg>